<svg width="16" height="16" viewBox="0 0 16 16" fill="none" xmlns="http://www.w3.org/2000/svg">
<path d="M5.58658 9.33332L12.3866 13.08C12.6185 13.2264 12.8852 13.3085 13.1594 13.3179C13.4335 13.3273 13.7052 13.2636 13.9466 13.1333C14.1794 12.9858 14.3688 12.7791 14.4953 12.5342C14.6219 12.2893 14.681 12.0152 14.6666 11.74L14.6666 4.25332C14.6808 3.97864 14.6231 3.705 14.4992 3.45946C14.3753 3.21392 14.1894 3.00498 13.9599 2.85332C13.758 2.73349 13.528 2.66909 13.2932 2.66665C12.9839 2.67413 12.6814 2.75893 12.4132 2.91332L5.58658 6.66666C5.32629 6.78398 5.10302 6.97019 4.94087 7.20519C4.77873 7.44018 4.68388 7.71501 4.66658 7.99999C4.68388 8.28497 4.77873 8.5598 4.94087 8.79479C5.10302 9.02978 5.32629 9.216 5.58658 9.33332Z" fill="#DADADA"/>
<path d="M2.99984 13.3333C3.44186 13.3333 3.86579 13.1577 4.17835 12.8452C4.49091 12.5326 4.6665 12.1087 4.6665 11.6666L4.6665 4.33331C4.6665 3.89128 4.49091 3.46736 4.17835 3.1548C3.86579 2.84224 3.44186 2.66665 2.99984 2.66665C2.55781 2.66665 2.13389 2.84224 1.82133 3.1548C1.50877 3.46736 1.33317 3.89128 1.33317 4.33331L1.33317 11.6666C1.33317 12.1087 1.50877 12.5326 1.82133 12.8452C2.13389 13.1577 2.55781 13.3333 2.99984 13.3333Z" fill="#DADADA"/>
</svg>
