<!-- icon666.com - MILLIONS vector ICONS FREE --><svg fill="none" viewBox="0 0 24 24" xmlns="http://www.w3.org/2000/svg" xmlns:xlink="http://www.w3.org/1999/xlink"><clipPath id="clip0_1_11"><path d="m0 0h24v24h-24z"></path></clipPath><g clip-path="url(#clip0_1_11)"><path clip-rule="evenodd" d="m11.4118 2.19126c.3507-.25501.8257-.25501 1.1764 0l11 8.00004c.3503.2547.4967.706.3628 1.1179-.134.412-.5179.6908-.951.6908h-2v9c0 .5523-.4477 1-1 1h-16c-.55229 0-1-.4477-1-1v-9h-2.000001c-.433138 0-.817037-.2788-.9509823-.6908-.1339454-.4119.0125165-.8632.3628113-1.1179zm-7.3401 7.81124c.51882.0368.9283.4693.9283.9975v9h14v-9c0-.5282.4095-.9607.9283-.9975l-7.9283-5.766z" fill="rgb(0,0,0)" fill-rule="evenodd"></path></g></svg>