<!-- icon666.com - MILLIONS vector ICONS FREE --><svg version="1.1" id="Capa_1" xmlns="http://www.w3.org/2000/svg" xmlns:xlink="http://www.w3.org/1999/xlink" x="0px" y="0px" viewBox="0 0 336.034 336.034" style="enable-background:new 0 0 336.034 336.034;" xml:space="preserve"><g><g><path d="M328.777,156.946L328.777,156.946l-143.24-143.28c-9.69-9.641-25.35-9.641-35.04,0L7.257,156.946 c-9.676,9.676-9.676,25.364,0,35.04s25.364,9.676,35.04,0l9.72-9.8v131.32c0.432,9.218,8.219,16.362,17.44,16h47.52 c2.209,0,4-1.791,4-4v-77.84c0.003-25.979,21.066-47.037,47.046-47.034c25.975,0.003,47.031,21.059,47.034,47.034v77.92 c0,2.209,1.791,4,4,4h47.44c9.221,0.362,17.008-6.782,17.44-16v-131.4l9.8,9.8c9.676,9.676,25.364,9.676,35.04,0 S338.453,166.622,328.777,156.946z M276.017,313.506c-0.445,4.792-4.64,8.347-9.44,8h-43.52v-73.84 c0-30.398-24.642-55.04-55.04-55.04s-55.04,24.642-55.04,55.04v73.92h-43.48c-4.8,0.347-8.995-3.208-9.44-8v-139.4l108-108 l108,108L276.017,313.506z M323.177,186.306c-6.556,6.535-17.164,6.535-23.72,0l-16.64-16.6l-112-112 c-1.56-1.551-4.08-1.551-5.64,0l-112,112l-16.6,16.6c-6.55,6.55-17.17,6.55-23.72,0c-6.55-6.55-6.55-17.17,0-23.72l143.16-143.24 c6.565-6.513,17.155-6.513,23.72,0l143.24,143.24c6.579,6.512,6.651,17.12,0.16,23.72H323.177z"></path></g></g></svg>