<svg width="16" height="16" viewBox="0 0 16 16" fill="none" xmlns="http://www.w3.org/2000/svg">
<path d="M10.4134 6.66668L3.61342 2.92001C3.38148 2.77359 3.11477 2.69149 2.84064 2.68212C2.56651 2.67274 2.29482 2.73644 2.05342 2.86668C1.82059 3.01416 1.63119 3.22095 1.50466 3.4658C1.37813 3.71066 1.31903 3.98477 1.33342 4.26001V11.7467C1.31917 12.0214 1.37686 12.295 1.5008 12.5405C1.62474 12.7861 1.81063 12.995 2.04009 13.1467C2.242 13.2665 2.47197 13.3309 2.70676 13.3333C3.01608 13.3259 3.31861 13.2411 3.58676 13.0867L10.4134 9.33334C10.6737 9.21602 10.897 9.02981 11.0591 8.79481C11.2213 8.55982 11.3161 8.28499 11.3334 8.00001C11.3161 7.71503 11.2213 7.4402 11.0591 7.20521C10.897 6.97022 10.6737 6.784 10.4134 6.66668Z" fill="#DADADA"/>
<path d="M13.0002 2.66669C12.5581 2.66669 12.1342 2.84228 11.8217 3.15484C11.5091 3.4674 11.3335 3.89133 11.3335 4.33335V11.6667C11.3335 12.1087 11.5091 12.5326 11.8217 12.8452C12.1342 13.1578 12.5581 13.3334 13.0002 13.3334C13.4422 13.3334 13.8661 13.1578 14.1787 12.8452C14.4912 12.5326 14.6668 12.1087 14.6668 11.6667V4.33335C14.6668 3.89133 14.4912 3.4674 14.1787 3.15484C13.8661 2.84228 13.4422 2.66669 13.0002 2.66669Z" fill="#DADADA"/>
</svg>
