<!-- icon666.com - MILLIONS vector ICONS FREE --><svg version="1.1" id="Layer_1" xmlns="http://www.w3.org/2000/svg" xmlns:xlink="http://www.w3.org/1999/xlink" x="0px" y="0px" viewBox="0 0 512 512" style="enable-background:new 0 0 512 512;" xml:space="preserve"><circle style="fill:#A5E1EB;" cx="256" cy="256" r="256"></circle><path style="fill:#78BED2;" d="M330.352,501.019C435.472,469.159,512,371.524,512,256c0-25.629-3.784-50.373-10.793-73.719 l-77.531-77.531l-169.148,33.408l-43.039-43.965L59.882,104.75l84.104,84.104l-87.097,38.702L330.352,501.019z"></path><path style="fill:#FF6838;" d="M256,170.667c0,0,82.747,186.47,28.444,312.889h-56.889c0,0,45.109-193.939,0-312.889H256z"></path><path style="fill:#AE4E32;" d="M256,170.667h-17.813c0,0,68.094,185.894,13.791,312.315l32.466,0.574 C338.747,357.136,256,170.667,256,170.667z"></path><g><path style="fill:#47AB4B;" d="M255.595,172.408c0,0-37.591-111.585-100.159-104.903S59.88,104.75,59.88,104.75 S221.503,136.945,255.595,172.408z"></path><path style="fill:#47AB4B;" d="M255.526,169.734c0,0-93.268-5.01-106.701,43.063c-13.433,48.073-0.588,81.348-0.588,81.348 S219.386,184.463,255.526,169.734z"></path></g><g><path style="fill:#2B9153;" d="M228.505,169.734c0,0,93.268-5.01,106.701,43.063c13.433,48.073,0.588,81.348,0.588,81.348 S264.644,184.463,228.505,169.734z"></path><path style="fill:#2B9153;" d="M227.961,172.408c0,0,37.591-111.585,100.159-104.903s95.556,37.245,95.556,37.245 S262.053,136.945,227.961,172.408z"></path></g><path style="fill:#47AB4B;" d="M227.556,170.667c0,0,94.815-69.818,142.222-28.444s56.889,85.333,56.889,85.333 S275.825,161.185,227.556,170.667z"></path><path style="fill:#60C344;" d="M256,170.667c0,0-94.815-69.818-142.222-28.444s-56.889,85.333-56.889,85.333 S207.731,161.185,256,170.667z"></path><path style="fill:#FFECB3;" d="M76.51,438.513C122.713,483.954,186.077,512,256,512s133.287-28.046,179.49-73.487 c-32.151-23.84-100.442-40.291-179.49-40.291S108.661,414.673,76.51,438.513z"></path><path style="fill:#FFD863;" d="M435.49,438.513c-32.151-23.84-100.442-40.291-179.49-40.291c-0.384,0-0.765,0.007-1.148,0.007 v113.755c0.384,0.002,0.765,0.014,1.148,0.014C325.923,512,389.287,483.954,435.49,438.513z"></path></svg>