<!-- icon666.com - MILLIONS vector ICONS FREE --><svg viewBox="0 0 101.08 116.43" xmlns="http://www.w3.org/2000/svg"><g id="Layer_2" data-name="Layer 2"><g id="Layer_1-2" data-name="Layer 1"><path d="m23.33 0h-7.78a15.53 15.53 0 0 0 -15.55 15.52v85.38a15.54 15.54 0 0 0 15.55 15.53h7.78a15.54 15.54 0 0 0 15.55-15.53v-85.38a15.54 15.54 0 0 0 -15.55-15.52zm62.2 0h-7.78a15.54 15.54 0 0 0 -15.55 15.52v85.38a15.54 15.54 0 0 0 15.55 15.53h7.78a15.54 15.54 0 0 0 15.55-15.53v-85.38a15.53 15.53 0 0 0 -15.55-15.52z"></path></g></g></svg>