<svg width="16" height="16" viewBox="0 0 16 16" fill="none" xmlns="http://www.w3.org/2000/svg">
<g clip-path="url(#clip0_104_2)">
<path d="M3.69292 1.77049e-06H2.46142C2.13846 -0.000359366 1.81859 0.0545302 1.52008 0.161534C1.22157 0.268538 0.950268 0.425559 0.721684 0.623624C0.493099 0.821689 0.31171 1.05692 0.18788 1.31587C0.0640504 1.57481 0.000207688 1.85241 0 2.13279L0 13.8658C0.000207803 14.1463 0.0640391 14.4239 0.187849 14.683C0.31166 14.942 0.493024 15.1773 0.721588 15.3755C0.950151 15.5737 1.22144 15.7308 1.51996 15.838C1.81848 15.9451 2.13839 16.0002 2.46142 16H3.69292C4.01595 16.0002 4.33585 15.9451 4.63437 15.838C4.9329 15.7308 5.20418 15.5737 5.43275 15.3755C5.66131 15.1773 5.84267 14.942 5.96648 14.683C6.09029 14.4239 6.15413 14.1463 6.15433 13.8658V2.13279C6.15349 1.56665 5.89375 1.02396 5.43219 0.624027C4.97063 0.224092 4.34503 -0.00036301 3.69292 1.77049e-06ZM13.5386 1.77049e-06H12.3071C11.655 -0.00036301 11.0294 0.224092 10.5678 0.624027C10.1063 1.02396 9.84651 1.56665 9.84567 2.13279V13.8658C9.84587 14.1463 9.90971 14.4239 10.0335 14.683C10.1573 14.942 10.3387 15.1773 10.5673 15.3755C10.7958 15.5737 11.0671 15.7308 11.3656 15.838C11.6641 15.9451 11.9841 16.0002 12.3071 16H13.5386C13.8616 16.0002 14.1815 15.9451 14.48 15.838C14.7786 15.7308 15.0498 15.5737 15.2784 15.3755C15.507 15.1773 15.6883 14.942 15.8122 14.683C15.936 14.4239 15.9998 14.1463 16 13.8658V2.13279C15.9998 1.85241 15.9359 1.57481 15.8121 1.31587C15.6883 1.05692 15.5069 0.821689 15.2783 0.623624C15.0497 0.425559 14.7784 0.268538 14.4799 0.161534C14.1814 0.0545302 13.8615 -0.000359366 13.5386 1.77049e-06Z" fill="black"/>
</g>
<defs>
<clipPath id="clip0_104_2">
<rect width="16" height="16" fill="white"/>
</clipPath>
</defs>
</svg>
