<svg width="20" height="20" viewBox="0 0 20 20" fill="none" xmlns="http://www.w3.org/2000/svg">
<path d="M4.61615 2.21311e-06H3.07677C2.67308 -0.000449207 2.27324 0.0681628 1.9001 0.201918C1.52696 0.335672 1.18784 0.531948 0.902105 0.77953C0.616374 1.02711 0.389637 1.32115 0.23485 1.64483C0.080063 1.96852 0.00025961 2.31551 0 2.66598L0 17.3323C0.000259754 17.6829 0.0800488 18.0299 0.234812 18.3537C0.389574 18.6775 0.61628 18.9716 0.901985 19.2194C1.18769 19.4671 1.5268 19.6635 1.89995 19.7975C2.2731 19.9314 2.67298 20.0002 3.07677 20H4.61615C5.01993 20.0002 5.41982 19.9314 5.79297 19.7975C6.16612 19.6635 6.50523 19.4671 6.79093 19.2194C7.07664 18.9716 7.30334 18.6775 7.4581 18.3537C7.61287 18.0299 7.69266 17.6829 7.69292 17.3323V2.66598C7.69187 1.95831 7.36718 1.27995 6.79023 0.780034C6.21328 0.280115 5.43129 -0.000453763 4.61615 2.21311e-06ZM16.9232 2.21311e-06H15.3839C14.5687 -0.000453763 13.7867 0.280115 13.2098 0.780034C12.6328 1.27995 12.3081 1.95831 12.3071 2.66598V17.3323C12.3073 17.6829 12.3871 18.0299 12.5419 18.3537C12.6967 18.6775 12.9234 18.9716 13.2091 19.2194C13.4948 19.4671 13.8339 19.6635 14.207 19.7975C14.5802 19.9314 14.9801 20.0002 15.3839 20H16.9232C17.327 20.0002 17.7269 19.9314 18.1001 19.7975C18.4732 19.6635 18.8123 19.4671 19.098 19.2194C19.3837 18.9716 19.6104 18.6775 19.7652 18.3537C19.92 18.0299 19.9997 17.6829 20 17.3323V2.66598C19.9997 2.31551 19.9199 1.96852 19.7651 1.64483C19.6104 1.32115 19.3836 1.02711 19.0979 0.77953C18.8122 0.531948 18.473 0.335672 18.0999 0.201918C17.7268 0.0681628 17.3269 -0.000449207 16.9232 2.21311e-06Z" fill="#DADADA"/>
</svg>
