<svg width="16" height="16" viewBox="0 0 16 16" fill="none" xmlns="http://www.w3.org/2000/svg">
<g clip-path="url(#clip0_15_53)">
<path d="M15.2381 7.23809H8.76191V0.761906C8.76191 0.341344 8.42134 0 8 0C7.57866 0 7.23809 0.341344 7.23809 0.761906V7.23809H0.761906C0.340563 7.23809 0 7.57944 0 8C0 8.42056 0.340563 8.76191 0.761906 8.76191H7.23809V15.2381C7.23809 15.6587 7.57866 16 8 16C8.42134 16 8.76191 15.6587 8.76191 15.2381V8.76191H15.2381C15.6594 8.76191 16 8.42056 16 8C16 7.57944 15.6594 7.23809 15.2381 7.23809Z" fill="#DADADA"/>
</g>
<defs>
<clipPath id="clip0_15_53">
<rect width="16" height="16" fill="white"/>
</clipPath>
</defs>
</svg>
