<svg width="33" height="32" viewBox="0 0 33 32" fill="none" xmlns="http://www.w3.org/2000/svg">
<path d="M31.37 7.10317L31.3265 6.10093L30.3067 5.99846C26.3896 5.60481 23.0221 4.17444 20.8868 3.04382C18.5481 1.8055 17.1305 0.643735 17.1175 0.633014L16.3519 0L15.5858 0.6321C15.5717 0.6437 14.154 1.8055 11.8154 3.04379C9.68012 4.1744 6.31264 5.60477 2.39551 5.99843L1.3757 6.1009L1.33216 7.10313C1.32437 7.28256 1.16055 11.557 2.84314 16.733C3.836 19.7874 5.26984 22.5241 7.10482 24.8675C9.40903 27.8099 12.348 30.1293 15.8402 31.7612L16.3511 32L16.862 31.7612C20.3541 30.1293 23.2932 27.81 25.5973 24.8675C27.4324 22.5242 28.8662 19.7874 29.8591 16.7331C31.5416 11.5571 31.3778 7.28263 31.37 7.10317ZM16.3511 29.4212C13.4377 27.9726 10.972 25.9801 9.01539 23.4927C7.34872 21.3738 6.04036 18.8876 5.12657 16.1033C4.00973 12.7002 3.75926 9.66514 3.70857 8.17483C5.27976 7.94654 6.86815 7.56242 8.44469 7.02892C9.98588 6.50738 11.5198 5.84241 13.0038 5.05254C14.5096 4.25111 15.6555 3.48564 16.351 2.98508C17.0466 3.4856 18.1925 4.25111 19.6983 5.05254C21.1823 5.84245 22.7163 6.50738 24.2574 7.02892C25.8344 7.56259 27.4233 7.94672 28.9949 8.175C28.9461 9.65069 28.7005 12.643 27.5995 16.0299C26.69 18.8279 25.3831 21.3265 23.7153 23.4564C21.754 25.9608 19.2786 27.9655 16.3511 29.4212Z" fill="#544C4C"/>
<path d="M22.813 10.7225L21.1589 12.3411L14.9941 18.3735L11.8697 15.3163L11.4449 14.9005L10.6066 15.7208V15.7208L9.76831 16.5412L14.9941 21.6547L24.4896 12.3631L22.813 10.7225Z" fill="#544C4C"/>
</svg>
