<svg width="16" height="16" viewBox="0 0 16 16" fill="none" xmlns="http://www.w3.org/2000/svg">
<g clip-path="url(#clip0_15_47)">
<path d="M0.529302 7.84437C0.701442 7.84437 0.840586 7.70523 0.840586 7.53309C0.840586 5.64515 2.37677 4.10896 4.26471 4.10896H11.7355V6.89931L16.0001 3.79768L11.7355 0.696045V3.48639H4.26471C2.03343 3.48639 0.218018 5.3018 0.218018 7.53309C0.218018 7.70523 0.357162 7.84437 0.529302 7.84437Z" fill="white"/>
<path d="M15.4708 8.15564C15.2987 8.15564 15.1595 8.29478 15.1595 8.46692C15.1595 10.3549 13.6233 11.891 11.7354 11.891H4.26459V9.1007L0 12.2023L4.26459 15.304V12.5136H11.7354C13.9667 12.5136 15.7821 10.6982 15.7821 8.46692C15.7821 8.29478 15.643 8.15564 15.4708 8.15564Z" fill="white"/>
</g>
<defs>
<clipPath id="clip0_15_47">
<rect width="16" height="16" fill="white"/>
</clipPath>
</defs>
</svg>
