<!-- icon666.com - MILLIONS vector ICONS FREE --><svg id="Layer_1" viewBox="0 0 24 24" xmlns="http://www.w3.org/2000/svg" data-name="Layer 1"><path d="m23.16 9.77-9.75-7.77a1.16 1.16 0 0 0 -1.88.91v3.72a11.71 11.71 0 0 0 -10.58 15.24.6.6 0 0 0 .57.42.6.6 0 0 0 .57-.42 10.6 10.6 0 0 1 9.43-7.34v3.93a1.16 1.16 0 0 0 1.88.91l9.76-7.79a1.16 1.16 0 0 0 0-1.81zm-10.43 8.69v-4.55a.6.6 0 0 0 -.6-.6 11.83 11.83 0 0 0 -10.44 6.38 10.53 10.53 0 0 1 10.43-11.87.6.6 0 0 0 .6-.6l-.07-4.31 9.76 7.73z"></path></svg>