<!-- icon666.com - MILLIONS vector ICONS FREE --><svg id="Layer_2" viewBox="0 0 32 32" xmlns="http://www.w3.org/2000/svg" data-name="Layer 2"><path d="m1.07 10.67h6a7.46 7.46 0 0 1 5 1.9 1.07 1.07 0 1 0 1.44-1.57 9.59 9.59 0 0 0 -6.4-2.44h-6a1.07 1.07 0 0 0 0 2.13z"></path><path d="m28.49 18.45a1.07 1.07 0 0 0 -1.49 1.55l1.38 1.38h-4.56a7.46 7.46 0 0 1 -4.94-1.87 1.07 1.07 0 1 0 -1.41 1.6 9.59 9.59 0 0 0 6.35 2.4h4.54l-1.36 1.34a1.07 1.07 0 1 0 1.51 1.51l3.2-3.2a1.07 1.07 0 0 0 0-1.51z"></path><path d="m23.82 10.67h4.54l-1.36 1.33a1.07 1.07 0 1 0 1.51 1.51l3.2-3.2a1.07 1.07 0 0 0 0-1.51l-3.2-3.2a1.07 1.07 0 0 0 -1.51 1.55l1.38 1.38h-4.56a9.57 9.57 0 0 0 -8.82 5.91l-1 2.3a7.45 7.45 0 0 1 -6.89 4.59h-6a1.07 1.07 0 0 0 0 2.13h6a9.57 9.57 0 0 0 8.89-5.9l1-2.3a7.45 7.45 0 0 1 6.82-4.59z"></path></svg>