<svg width="16" height="16" viewBox="0 0 16 16" fill="none" xmlns="http://www.w3.org/2000/svg">
<g clip-path="url(#clip0_15_43)">
<path d="M0.535117 5.33497H3.53512C4.45723 5.33173 5.34786 5.67017 6.03512 6.28497C6.08502 6.34032 6.14595 6.38464 6.21398 6.41508C6.28201 6.44552 6.35565 6.4614 6.43018 6.46172C6.50471 6.46204 6.57849 6.44679 6.64678 6.41693C6.71507 6.38708 6.77636 6.34328 6.82674 6.28835C6.87712 6.23343 6.91547 6.16858 6.93932 6.09797C6.96318 6.02736 6.97202 5.95255 6.96528 5.87832C6.95853 5.8041 6.93635 5.7321 6.90016 5.66695C6.86397 5.60179 6.81457 5.54492 6.75512 5.49997C5.87499 4.71327 4.73559 4.27887 3.55512 4.27997H0.555117C0.422791 4.29281 0.299985 4.35445 0.210632 4.4529C0.121278 4.55134 0.0717773 4.67952 0.0717773 4.81247C0.0717773 4.94542 0.121278 5.0736 0.210632 5.17204C0.299985 5.27049 0.422791 5.33213 0.555117 5.34497L0.535117 5.33497Z" fill="white"/>
<path d="M14.2451 9.22502C14.1423 9.12623 14.0045 9.0723 13.862 9.07512C13.7194 9.07793 13.5839 9.13725 13.4851 9.24002C13.3863 9.34279 13.3324 9.4806 13.3352 9.62312C13.338 9.76565 13.3973 9.90122 13.5001 10L14.1901 10.69H11.9101C11.0003 10.69 10.1218 10.3575 9.44008 9.75502C9.38881 9.70166 9.32703 9.65952 9.25864 9.63125C9.19026 9.60299 9.11675 9.58921 9.04277 9.59081C8.96879 9.5924 8.89595 9.60932 8.82884 9.6405C8.76174 9.67168 8.70183 9.71645 8.6529 9.77196C8.60398 9.82748 8.56711 9.89254 8.54461 9.96304C8.52211 10.0335 8.51449 10.1079 8.52221 10.1815C8.52993 10.2551 8.55284 10.3263 8.58948 10.3906C8.62612 10.4549 8.67569 10.5109 8.73508 10.555C9.6117 11.3287 10.7408 11.7555 11.9101 11.755H14.1801L13.5001 12.425C13.4451 12.4733 13.4005 12.5323 13.3693 12.5985C13.338 12.6647 13.3206 12.7366 13.3182 12.8097C13.3159 12.8829 13.3285 12.9557 13.3554 13.0238C13.3823 13.0919 13.4229 13.1537 13.4747 13.2054C13.5264 13.2572 13.5882 13.2978 13.6563 13.3247C13.7244 13.3516 13.7972 13.3642 13.8704 13.3619C13.9435 13.3595 14.0154 13.3421 14.0816 13.3108C14.1478 13.2796 14.2068 13.235 14.2551 13.18L15.8551 11.58C15.9549 11.4798 16.011 11.344 16.011 11.2025C16.011 11.061 15.9549 10.9253 15.8551 10.825L14.2451 9.22502Z" fill="white"/>
<path d="M11.9101 5.33503H14.1801L13.5001 6.00003C13.4451 6.0483 13.4006 6.10735 13.3693 6.17352C13.338 6.23969 13.3207 6.31158 13.3183 6.38473C13.3159 6.45788 13.3285 6.53075 13.3555 6.59881C13.3824 6.66688 13.4229 6.7287 13.4747 6.78045C13.5264 6.83221 13.5883 6.87279 13.6563 6.89969C13.7244 6.9266 13.7973 6.93925 13.8704 6.93687C13.9436 6.93448 14.0155 6.91712 14.0816 6.88584C14.1478 6.85456 14.2068 6.81004 14.2551 6.75503L15.8551 5.15503C15.955 5.05476 16.011 4.91903 16.011 4.77753C16.011 4.63603 15.955 4.50029 15.8551 4.40003L14.2551 2.80003C14.2042 2.75045 14.1441 2.71139 14.0781 2.68506C14.0121 2.65874 13.9416 2.64566 13.8705 2.64659C13.7995 2.64752 13.7294 2.66243 13.6641 2.69047C13.5988 2.71852 13.5397 2.75914 13.4901 2.81003C13.39 2.9128 13.3348 3.05113 13.3367 3.1946C13.3386 3.33806 13.3973 3.47491 13.5001 3.57503L14.1901 4.26503H11.9101C10.9654 4.26725 10.0426 4.54904 9.25776 5.07491C8.47298 5.60077 7.8614 6.34716 7.50012 7.22003L7.00012 8.37003C6.71725 9.0504 6.23897 9.6316 5.62575 10.0401C5.01254 10.4486 4.29194 10.6661 3.55512 10.665H0.555117C0.422791 10.6779 0.299985 10.7395 0.210631 10.838C0.121277 10.9364 0.0717773 11.0646 0.0717773 11.1975C0.0717773 11.3305 0.121277 11.4587 0.210631 11.5571C0.299985 11.6555 0.422791 11.7172 0.555117 11.73H3.55512C4.50518 11.7352 5.43527 11.4573 6.22688 10.932C7.01849 10.4066 7.63578 9.65748 8.00012 8.78003L8.50012 7.63003C8.78067 6.95514 9.25357 6.3777 9.85992 5.96962C10.4663 5.56153 11.1793 5.34084 11.9101 5.33503Z" fill="white"/>
</g>
<defs>
<clipPath id="clip0_15_43">
<rect width="16" height="16" fill="white"/>
</clipPath>
</defs>
</svg>
