<svg width="16" height="16" viewBox="0 0 16 16" fill="none" xmlns="http://www.w3.org/2000/svg">
<path d="M3.81616 4.40247H1.19253C0.523937 4.40247 0 4.9264 0 5.59503V10.4248C0 11.0935 0.523937 11.6174 1.19253 11.6174H3.81612C4.14547 11.6174 4.41241 11.3507 4.41241 11.0211V4.99875C4.41244 4.6694 4.1455 4.40247 3.81616 4.40247ZM3.21988 10.4248H1.19253L1.18338 5.59581C1.18338 5.59581 1.18616 5.59503 1.19253 5.59503H3.21988V10.4248Z" fill="#DADADA"/>
<path d="M9.03622 2.02511C8.85872 1.91698 8.63732 1.90882 8.45288 2.00404L3.6626 4.46864L4.20819 5.52901L8.12929 3.51161V12.4885L4.20819 10.4709L3.6626 11.5315L8.45285 13.9961C8.5385 14.0402 8.63213 14.0621 8.72553 14.0621C8.83347 14.0621 8.941 14.0329 9.036 13.9749C9.2135 13.8667 9.32182 13.6737 9.32182 13.4658V2.53414C9.32185 2.32623 9.21372 2.13323 9.03622 2.02511Z" fill="#DADADA"/>
<path d="M10.733 5.61469C10.4037 5.61469 10.1367 5.88162 10.1367 6.21097C10.1367 6.54031 10.4037 6.80725 10.733 6.80725C11.5111 6.80725 12.1442 7.44028 12.1442 8.21844C12.1442 8.99659 11.5112 9.62981 10.733 9.62981C10.4037 9.62981 10.1367 9.89675 10.1367 10.2261C10.1367 10.5554 10.4037 10.8224 10.733 10.8224C12.1688 10.8224 13.3367 9.65428 13.3367 8.21844C13.3367 6.78259 12.1688 5.61469 10.733 5.61469Z" fill="#DADADA"/>
<path d="M10.733 2.95129C10.4037 2.95129 10.1367 3.21823 10.1367 3.54758C10.1367 3.87692 10.4037 4.14386 10.733 4.14386C12.9797 4.14386 14.8075 5.97164 14.8075 8.21839C14.8075 10.4763 12.9797 12.313 10.733 12.313C10.4037 12.313 10.1367 12.5799 10.1367 12.9093C10.1367 13.2386 10.4037 13.5055 10.733 13.5055C13.6372 13.5055 16.0001 11.134 16.0001 8.21839C16.0001 5.31414 13.6372 2.95129 10.733 2.95129Z" fill="#DADADA"/>
</svg>
